<svg xmlns="http://www.w3.org/2000/svg" viewBox="0 0 48 48" width="144px" height="144px">
  <rect width="29" height="30" x="18" y="9" fill="#fafafa"/>
  <path fill="#76b900" d="M 20 8 C 18.9 8 18 8.9 18 10 L 18 12.550781 L 18.839844 12.5 C 29.599844 12.13 36.619141 21.320312 36.619141 21.320312 C 36.619141 21.320313 28.569688 31.119141 20.179688 31.119141 C 19.449688 31.119141 18.71 31.049688 18 30.929688 L 18 28.720703 C 18.73 28.960703 19.520781 29.080078 20.300781 29.080078 C 26.180781 29.080078 31.650391 21.480469 31.650391 21.480469 C 31.650391 21.480469 26.579844 14.570312 18.839844 14.820312 C 18.565697 14.820313 18.291725 14.839422 18.017578 14.849609 L 18.017578 12.552734 C 8.5315781 13.319734 0.3359375 21.341797 0.3359375 21.341797 C 0.3359375 21.341797 4.974 34.767281 18 35.988281 L 18 33.550781 C 18.59 33.620781 19.220547 33.669922 19.810547 33.669922 C 27.630547 33.669922 33.28 29.680703 38.75 24.970703 C 39.66 25.700703 43.370625 27.460469 44.140625 28.230469 C 38.940625 32.590469 26.819219 36.089844 19.949219 36.089844 C 19.289219 36.089844 18.63 36.060234 18 35.990234 L 18 38 C 18 39.1 18.9 40 20 40 L 45 40 C 46.1 40 47 39.1 47 38 L 47 10 C 47 8.9 46.1 8 45 8 L 20 8 z M 18 14.855469 L 18 17.679688 C 18.52 17.629687 19.050313 17.589375 19.570312 17.609375 C 24.520313 17.609375 27.470703 21.460938 27.470703 21.460938 L 23.439453 24.849609 C 21.639453 21.829609 21.01 20.500625 18 20.140625 L 18 28.716797 C 13.937 27.338797 12.595703 22.578125 12.595703 22.578125 C 12.595703 22.578125 14.965422 19.753141 17.982422 20.119141 L 18 20.119141 L 18 17.679688 C 12.245 18.307688 8.7753906 22.142578 8.7753906 22.142578 C 8.7753906 22.142578 10.781 29.659219 18 30.949219 L 18 33.548828 C 8.444 32.361828 5.1835938 21.828125 5.1835938 21.828125 C 5.1835938 21.828125 9.4500806 15.524958 18 14.855469 z"/>
</svg>
